<svg width="64" height="64" viewBox="0 0 64 64" fill="none" xmlns="http://www.w3.org/2000/svg">
<rect width="64" height="64" rx="12" fill="#18181B"/>
<path d="M46.3396 13.5H17.6604C14.5342 13.5 12 16.0342 12 19.1604V26.3302H52V19.1604C52 16.0342 49.4658 13.5 46.3396 13.5Z" fill="url(#paint0_linear_379_5)"/>
<path d="M46.5 45C43.5 45.5 41.6226 45.3868 41.6226 45.3868C41.3209 46.1244 41.0668 46.7608 40.8413 47.3255C39.7979 49.9386 39.367 51.0176 37.6604 53.5C37.6604 53.5 41.6226 51.6132 45.5849 48.9717C49.5472 46.3302 52 43.1875 52 43.1875C52 43.1875 49.5 44.5 46.5 45Z" fill="#9D75DE"/>
<path d="M52 43.1875V26.3302H12V47.8396C12 50.9658 14.5342 53.5 17.6604 53.5H37.6604C39.367 51.0176 39.7979 49.9386 40.8413 47.3255C41.0668 46.7608 41.3209 46.1244 41.6226 45.3868C41.6226 45.3868 43.5 45.5 46.5 45C49.5 44.5 52 43.1875 52 43.1875Z" fill="url(#paint1_linear_379_5)"/>
<path fill-rule="evenodd" clip-rule="evenodd" d="M21.375 8.5C22.4105 8.5 23.25 9.33947 23.25 10.375V17.25C23.25 18.2855 22.4105 19.125 21.375 19.125C20.3395 19.125 19.5 18.2855 19.5 17.25V10.375C19.5 9.33947 20.3395 8.5 21.375 8.5Z" fill="url(#paint2_linear_379_5)"/>
<path fill-rule="evenodd" clip-rule="evenodd" d="M42.625 8.5C43.6605 8.5 44.5 9.33947 44.5 10.375V17.25C44.5 18.2855 43.6605 19.125 42.625 19.125C41.5895 19.125 40.75 18.2855 40.75 17.25V10.375C40.75 9.33947 41.5895 8.5 42.625 8.5Z" fill="url(#paint3_linear_379_5)"/>
<path d="M25.75 30.375H18.25V37.875H25.75V30.375Z" fill="url(#paint4_linear_379_5)"/>
<path d="M35.75 30.375H28.25V37.875H35.75V30.375Z" fill="url(#paint5_linear_379_5)"/>
<path d="M45.75 30.375H38.25V37.875H45.75V30.375Z" fill="url(#paint6_linear_379_5)"/>
<path d="M25.75 40.375H18.25V47.875H25.75V40.375Z" fill="url(#paint7_linear_379_5)"/>
<path d="M35.75 40.375H28.25V47.875H35.75V40.375Z" fill="url(#paint8_linear_379_5)"/>
<defs>
<linearGradient id="paint0_linear_379_5" x1="52" y1="15.5312" x2="12" y2="15.5312" gradientUnits="userSpaceOnUse">
<stop stop-color="#A981EA"/>
<stop offset="1" stop-color="#874DE5"/>
</linearGradient>
<linearGradient id="paint1_linear_379_5" x1="32" y1="8.5" x2="32" y2="53.5" gradientUnits="userSpaceOnUse">
<stop stop-color="#CECECE"/>
<stop offset="1" stop-color="white"/>
</linearGradient>
<linearGradient id="paint2_linear_379_5" x1="42.625" y1="8.5" x2="42.625" y2="19.125" gradientUnits="userSpaceOnUse">
<stop stop-color="white"/>
<stop offset="1" stop-color="#DDD9E3"/>
</linearGradient>
<linearGradient id="paint3_linear_379_5" x1="42.625" y1="8.5" x2="42.625" y2="19.125" gradientUnits="userSpaceOnUse">
<stop stop-color="white"/>
<stop offset="1" stop-color="#DDD9E3"/>
</linearGradient>
<linearGradient id="paint4_linear_379_5" x1="192" y1="46" x2="-21.3333" y2="46" gradientUnits="userSpaceOnUse">
<stop stop-color="#B591EF"/>
<stop offset="1" stop-color="#874DE5"/>
</linearGradient>
<linearGradient id="paint5_linear_379_5" x1="138.667" y1="46" x2="-74.6667" y2="46" gradientUnits="userSpaceOnUse">
<stop stop-color="#B591EF"/>
<stop offset="1" stop-color="#874DE5"/>
</linearGradient>
<linearGradient id="paint6_linear_379_5" x1="85.3333" y1="46" x2="-128" y2="46" gradientUnits="userSpaceOnUse">
<stop stop-color="#B591EF"/>
<stop offset="1" stop-color="#874DE5"/>
</linearGradient>
<linearGradient id="paint7_linear_379_5" x1="192" y1="-14" x2="-21.3333" y2="-14" gradientUnits="userSpaceOnUse">
<stop stop-color="#B591EF"/>
<stop offset="1" stop-color="#874DE5"/>
</linearGradient>
<linearGradient id="paint8_linear_379_5" x1="52" y1="36.625" x2="12" y2="36.625" gradientUnits="userSpaceOnUse">
<stop stop-color="#B591EF"/>
<stop offset="1" stop-color="#874DE5"/>
</linearGradient>
</defs>
</svg>
