<svg width="64" height="64" viewBox="0 0 64 64" fill="none" xmlns="http://www.w3.org/2000/svg">
<rect width="64" height="64" rx="12" fill="#262626"/>
<path d="M46.3396 13H17.6604C14.5342 13 12 15.5342 12 18.6604V25.8302H52V18.6604C52 15.5342 49.4658 13 46.3396 13Z" fill="url(#paint0_linear_379_5)"/>
<path d="M46.5 44.5C43.5 45 41.6226 44.8868 41.6226 44.8868C41.3209 45.6244 41.0668 46.2608 40.8413 46.8255C39.7979 49.4386 39.367 50.5176 37.6604 53C37.6604 53 41.6226 51.1132 45.5849 48.4717C49.5472 45.8302 52 42.6875 52 42.6875C52 42.6875 49.5 44 46.5 44.5Z" fill="#9D75DE"/>
<path d="M52 42.6875V25.8302H12V47.3396C12 50.4658 14.5342 53 17.6604 53H37.6604C39.367 50.5176 39.7979 49.4386 40.8413 46.8255C41.0668 46.2608 41.3209 45.6244 41.6226 44.8868C41.6226 44.8868 43.5 45 46.5 44.5C49.5 44 52 42.6875 52 42.6875Z" fill="url(#paint1_linear_379_5)"/>
<path fill-rule="evenodd" clip-rule="evenodd" d="M21.375 8C22.4105 8 23.25 8.83947 23.25 9.875V16.75C23.25 17.7855 22.4105 18.625 21.375 18.625C20.3395 18.625 19.5 17.7855 19.5 16.75V9.875C19.5 8.83947 20.3395 8 21.375 8Z" fill="url(#paint2_linear_379_5)"/>
<path fill-rule="evenodd" clip-rule="evenodd" d="M42.625 8C43.6605 8 44.5 8.83947 44.5 9.875V16.75C44.5 17.7855 43.6605 18.625 42.625 18.625C41.5895 18.625 40.75 17.7855 40.75 16.75V9.875C40.75 8.83947 41.5895 8 42.625 8Z" fill="url(#paint3_linear_379_5)"/>
<path d="M25.75 29.875H18.25V37.375H25.75V29.875Z" fill="url(#paint4_linear_379_5)"/>
<path d="M35.75 29.875H28.25V37.375H35.75V29.875Z" fill="url(#paint5_linear_379_5)"/>
<path d="M45.75 29.875H38.25V37.375H45.75V29.875Z" fill="url(#paint6_linear_379_5)"/>
<path d="M25.75 39.875H18.25V47.375H25.75V39.875Z" fill="url(#paint7_linear_379_5)"/>
<path d="M35.75 39.875H28.25V47.375H35.75V39.875Z" fill="url(#paint8_linear_379_5)"/>
<defs>
<linearGradient id="paint0_linear_379_5" x1="52" y1="15.0312" x2="12" y2="15.0312" gradientUnits="userSpaceOnUse">
<stop stop-color="#A981EA"/>
<stop offset="1" stop-color="#874DE5"/>
</linearGradient>
<linearGradient id="paint1_linear_379_5" x1="32" y1="8" x2="32" y2="53" gradientUnits="userSpaceOnUse">
<stop stop-color="#CECECE"/>
<stop offset="1" stop-color="white"/>
</linearGradient>
<linearGradient id="paint2_linear_379_5" x1="42.625" y1="8" x2="42.625" y2="18.625" gradientUnits="userSpaceOnUse">
<stop stop-color="white"/>
<stop offset="1" stop-color="#DDD9E3"/>
</linearGradient>
<linearGradient id="paint3_linear_379_5" x1="42.625" y1="8" x2="42.625" y2="18.625" gradientUnits="userSpaceOnUse">
<stop stop-color="white"/>
<stop offset="1" stop-color="#DDD9E3"/>
</linearGradient>
<linearGradient id="paint4_linear_379_5" x1="192" y1="45.5" x2="-21.3333" y2="45.5" gradientUnits="userSpaceOnUse">
<stop stop-color="#B591EF"/>
<stop offset="1" stop-color="#874DE5"/>
</linearGradient>
<linearGradient id="paint5_linear_379_5" x1="138.667" y1="45.5" x2="-74.6667" y2="45.5" gradientUnits="userSpaceOnUse">
<stop stop-color="#B591EF"/>
<stop offset="1" stop-color="#874DE5"/>
</linearGradient>
<linearGradient id="paint6_linear_379_5" x1="85.3333" y1="45.5" x2="-128" y2="45.5" gradientUnits="userSpaceOnUse">
<stop stop-color="#B591EF"/>
<stop offset="1" stop-color="#874DE5"/>
</linearGradient>
<linearGradient id="paint7_linear_379_5" x1="192" y1="-14.5" x2="-21.3333" y2="-14.5" gradientUnits="userSpaceOnUse">
<stop stop-color="#B591EF"/>
<stop offset="1" stop-color="#874DE5"/>
</linearGradient>
<linearGradient id="paint8_linear_379_5" x1="52" y1="36.125" x2="12" y2="36.125" gradientUnits="userSpaceOnUse">
<stop stop-color="#B591EF"/>
<stop offset="1" stop-color="#874DE5"/>
</linearGradient>
</defs>
</svg>
